<svg width="70" height="21" viewBox="0 0 70 21" fill="none" xmlns="http://www.w3.org/2000/svg">
<g clip-path="url(#clip0_86_1678)">
<path d="M7.58062 4.1001V9.74156H2.44039V4.1001H0V17.5668H2.44039V12.1085H7.58062V17.5668H10.021V4.1001H7.58062Z" fill="#33475B"/>
<path d="M17.8312 13.2136C17.8312 13.7533 17.6185 14.2709 17.2398 14.6525C16.8612 15.0341 16.3477 15.2485 15.8123 15.2485C15.2768 15.2485 14.7633 15.0341 14.3847 14.6525C14.0061 14.2709 13.7934 13.7533 13.7934 13.2136V7.44556H11.4785V13.2136C11.4785 14.371 11.9347 15.4809 12.7466 16.2993C13.5586 17.1178 14.6598 17.5775 15.8081 17.5775C16.9564 17.5775 18.0576 17.1178 18.8695 16.2993C19.6815 15.4809 20.1376 14.371 20.1376 13.2136V7.44556H17.8312V13.2136Z" fill="#33475B"/>
<path d="M34.9821 8.03984C34.9821 6.85756 35.7581 6.48274 36.6083 6.48274C37.2934 6.48274 38.1985 7.0082 38.7904 7.64574L40.3065 5.8452C39.5496 4.81357 38.0144 4.1001 36.7577 4.1001C34.2468 4.1001 32.4306 5.58247 32.4306 8.03984C32.4306 12.599 37.9594 11.1528 37.9594 13.7042C37.9594 14.4912 37.2013 15.1866 36.3333 15.1866C34.9642 15.1866 34.5206 14.5117 33.8917 13.7982L32.2094 15.5614C33.2855 16.8931 34.6127 17.5692 36.2029 17.5692C38.5883 17.5692 40.5074 16.0688 40.5074 13.7235C40.5074 8.66171 34.9786 10.2345 34.9786 8.03984" fill="#33475B"/>
<path d="M69.1857 15.4156C67.8179 15.4156 67.4293 14.8191 67.4293 13.9055V9.86214H69.5552V7.81333H67.4293V5.11011L65.0822 6.17187V14.4081C65.0822 16.5147 66.5241 17.5765 68.5018 17.5765C68.812 17.5822 69.1219 17.5572 69.4273 17.5018L70 15.3771C69.7417 15.3951 69.4452 15.4132 69.1857 15.4132" fill="#33475B"/>
<path d="M26.6421 7.51324C25.4955 7.51324 24.6955 7.84828 23.9219 8.61357V4.18091H21.6035V12.3966C21.6035 15.4723 23.8095 17.5789 26.2882 17.5789C29.0383 17.5789 31.4571 15.4349 31.4571 12.5473C31.4571 9.69582 29.2308 7.51444 26.6421 7.51444V7.51324ZM26.6278 15.2276C26.1075 15.2276 25.5989 15.0721 25.1663 14.7808C24.7338 14.4894 24.3966 14.0753 24.1975 13.5909C23.9984 13.1064 23.9463 12.5733 24.0478 12.0589C24.1493 11.5446 24.3998 11.0722 24.7677 10.7014C25.1356 10.3306 25.6043 10.0781 26.1146 9.97575C26.6249 9.87345 27.1538 9.92595 27.6344 10.1266C28.1151 10.3273 28.5259 10.6671 28.8149 11.1032C29.104 11.5392 29.2583 12.0518 29.2583 12.5762C29.2583 13.2794 28.9811 13.9538 28.4878 14.451C27.9945 14.9483 27.3254 15.2276 26.6278 15.2276Z" fill="#33475B"/>
<path d="M51.816 12.4242C51.816 9.53178 49.4019 7.39258 46.6471 7.39258C44.1684 7.39258 41.9624 9.49924 41.9624 12.5749V20.7954H44.2808V16.3567C45.0532 17.1208 45.8543 17.457 46.9998 17.457C49.5884 17.457 51.8148 15.2769 51.8148 12.4242H51.816ZM49.6207 12.3953C49.6207 12.9197 49.4665 13.4323 49.1774 13.8683C48.8884 14.3043 48.4775 14.6442 47.9969 14.8449C47.5162 15.0455 46.9873 15.098 46.4771 14.9957C45.9668 14.8934 45.4981 14.6409 45.1302 14.2701C44.7623 13.8993 44.5118 13.4269 44.4103 12.9125C44.3088 12.3982 44.3609 11.8651 44.56 11.3806C44.7591 10.8962 45.0962 10.4821 45.5288 10.1907C45.9614 9.89939 46.47 9.74389 46.9902 9.74389C47.6879 9.74389 48.357 10.0232 48.8503 10.5205C49.3436 11.0177 49.6207 11.6921 49.6207 12.3953Z" fill="#33475B"/>
<path d="M59.3059 7.27944V4.93175C59.6137 4.78678 59.8743 4.55667 60.0574 4.2682C60.2405 3.97974 60.3386 3.64479 60.3402 3.30234V3.24811C60.3402 2.76865 60.1512 2.30884 59.8148 1.96982C59.4785 1.63079 59.0223 1.44033 58.5466 1.44033H58.4928C58.0172 1.44033 57.561 1.63079 57.2246 1.96982C56.8883 2.30884 56.6993 2.76865 56.6993 3.24811V3.30234C56.7009 3.64479 56.7989 3.97974 56.982 4.2682C57.1651 4.55667 57.4258 4.78678 57.7336 4.93175V7.27944C56.8489 7.41586 56.0157 7.78547 55.3183 8.35085L48.931 3.33608C48.9762 3.17072 49.0003 3.00022 49.0027 2.8287C49.0034 2.42582 48.8856 2.03177 48.6641 1.69641C48.4426 1.36104 48.1274 1.09942 47.7583 0.944641C47.3893 0.789858 46.983 0.748867 46.5909 0.826852C46.1987 0.904837 45.8383 1.09829 45.5553 1.38275C45.2722 1.66721 45.0792 2.0299 45.0007 2.42493C44.9222 2.81996 44.9616 3.22959 45.1141 3.60201C45.2666 3.97444 45.5252 4.29291 45.8573 4.51717C46.1893 4.74142 46.5799 4.86137 46.9796 4.86184C47.3291 4.86027 47.6721 4.76636 47.9744 4.58947L54.2649 9.52228C53.6997 10.3828 53.4048 11.3949 53.4186 12.4268C53.4325 13.4587 53.7545 14.4624 54.3426 15.3072L52.4295 17.2354C52.2748 17.1857 52.1136 17.1593 51.9513 17.1571C51.6231 17.1573 51.3024 17.2556 51.0297 17.4395C50.7569 17.6234 50.5444 17.8847 50.4189 18.1903C50.2935 18.4959 50.2607 18.8322 50.3248 19.1565C50.3889 19.4809 50.5469 19.7789 50.7789 20.0127C51.011 20.2466 51.3066 20.4059 51.6284 20.4705C51.9502 20.5351 52.2838 20.5021 52.587 20.3756C52.8902 20.2491 53.1494 20.0349 53.3319 19.76C53.5143 19.4851 53.6118 19.1619 53.6121 18.8311C53.61 18.6674 53.5838 18.505 53.5343 18.349L55.4271 16.4412C56.0443 16.92 56.762 17.2499 57.5252 17.4059C58.2885 17.5619 59.077 17.5398 59.8305 17.3412C60.5839 17.1426 61.2823 16.7728 61.872 16.2601C62.4618 15.7475 62.9273 15.1056 63.233 14.3836C63.5387 13.6617 63.6763 12.8787 63.6355 12.0949C63.5946 11.311 63.3763 10.5469 62.9972 9.86121C62.6182 9.1755 62.0884 8.58633 61.4486 8.13882C60.8088 7.69132 60.0758 7.39735 59.3059 7.27944ZM58.5215 14.9998C58.0038 14.9994 57.4978 14.8442 57.0675 14.5539C56.6372 14.2637 56.302 13.8514 56.1041 13.3691C55.9063 12.8869 55.8547 12.3563 55.9559 11.8445C56.0571 11.3328 56.3066 10.8627 56.6727 10.4938C57.0389 10.1248 57.5054 9.87361 58.0132 9.77182C58.521 9.67004 59.0473 9.72228 59.5257 9.92193C60.0041 10.1216 60.413 10.4597 60.7007 10.8935C60.9885 11.3273 61.1422 11.8374 61.1425 12.3593C61.1425 13.0593 60.8666 13.7306 60.3755 14.2256C59.8844 14.7206 59.2184 14.9986 58.5239 14.9986" fill="#FF7A59"/>
</g>
<defs>
<clipPath id="clip0_86_1678">
<rect width="70" height="20" fill="white" transform="translate(0 0.789551)"/>
</clipPath>
</defs>
</svg>
