<svg width="71" height="16" viewBox="0 0 71 16" fill="none" xmlns="http://www.w3.org/2000/svg">
<g clip-path="url(#clip0_86_1666)">
<path d="M25.3087 8.92292L24.8915 10.1025H24.8567C24.7872 9.8365 24.6597 9.43175 24.4511 8.94605L22.2143 3.33733H20.0239V12.2766H21.4726V6.76038C21.4726 6.41345 21.4726 6.02026 21.461 5.53456C21.4494 5.2917 21.4262 5.10667 21.4147 4.9679H21.4494C21.519 5.31483 21.6001 5.56925 21.658 5.73115L24.3468 12.2535H25.3666L28.0322 5.67333C28.0901 5.52299 28.1481 5.22232 28.206 4.9679H28.2408C28.206 5.62707 28.1829 6.21685 28.1713 6.57535V12.2419H29.7127V3.3142H27.6034L25.3087 8.92292ZM31.1729 5.83523H32.6796V12.2419H31.1729V5.83523ZM31.9378 3.12917C31.6829 3.12917 31.4743 3.22168 31.3004 3.38358C31.1266 3.54549 31.0339 3.75364 31.0339 4.00806C31.0339 4.25091 31.1266 4.45907 31.3004 4.62097C31.4743 4.78287 31.6829 4.86382 31.9378 4.86382C32.1928 4.86382 32.413 4.77131 32.5752 4.62097C32.7491 4.45907 32.8418 4.25091 32.8418 4.00806C32.8418 3.76521 32.7491 3.55705 32.5752 3.38358C32.4246 3.22168 32.2044 3.12917 31.9378 3.12917ZM38.0223 5.77741C37.7441 5.71959 37.4544 5.68489 37.1762 5.68489C36.4925 5.68489 35.8666 5.83523 35.3451 6.1359C34.8236 6.43658 34.4064 6.85289 34.1398 7.37329C33.8617 7.90525 33.7226 8.51816 33.7226 9.22359C33.7226 9.8365 33.8617 10.38 34.1282 10.8773C34.3948 11.363 34.7656 11.7562 35.264 12.0222C35.7392 12.2881 36.2954 12.4269 36.9213 12.4269C37.6398 12.4269 38.2541 12.2766 38.7408 11.999L38.7524 11.9875V10.5998L38.6945 10.646C38.4743 10.8079 38.2193 10.9467 37.9643 11.0276C37.6978 11.1201 37.4544 11.1664 37.2458 11.1664C36.6431 11.1664 36.168 10.9929 35.8319 10.6113C35.4842 10.2413 35.3103 9.73242 35.3103 9.09638C35.3103 8.43721 35.4842 7.91682 35.8435 7.53519C36.2027 7.15357 36.6779 6.95697 37.2574 6.95697C37.7441 6.95697 38.2425 7.11888 38.6945 7.44268L38.7524 7.48893V6.02026L38.7408 6.0087C38.5438 5.92775 38.3236 5.83523 38.0223 5.77741ZM42.9941 5.73115C42.6233 5.73115 42.2756 5.84679 41.9743 6.08965C41.7193 6.2978 41.5454 6.59848 41.3948 6.95697H41.3832V5.83523H39.8766V12.2419H41.3832V8.96917C41.3832 8.41408 41.4991 7.95151 41.7541 7.61614C42.009 7.26921 42.3335 7.09575 42.7276 7.09575C42.8666 7.09575 43.0057 7.13044 43.1796 7.15357C43.3418 7.19983 43.4577 7.24608 43.5388 7.3039L43.5968 7.35016V5.84679L43.562 5.83523C43.4577 5.76584 43.2491 5.73115 42.9941 5.73115ZM47.0968 5.69646C46.0421 5.69646 45.1961 6.0087 44.6051 6.62161C44.0024 7.23452 43.7127 8.07872 43.7127 9.14264C43.7127 10.1372 44.014 10.9467 44.5935 11.5365C45.1729 12.1147 45.961 12.4154 46.9461 12.4154C47.9776 12.4154 48.8004 12.1031 49.3915 11.4786C49.9941 10.8542 50.2839 10.0215 50.2839 8.9923C50.2839 7.97464 50.0057 7.16513 49.4378 6.57535C48.8931 5.98557 48.0935 5.69646 47.0968 5.69646ZM48.3021 10.6229C48.0239 10.9814 47.5835 11.1548 47.0388 11.1548C46.4941 11.1548 46.0537 10.9814 45.7408 10.5998C45.4279 10.2413 45.2772 9.72086 45.2772 9.06169C45.2772 8.37939 45.4395 7.85899 45.7408 7.48893C46.0537 7.11888 46.4825 6.93385 47.0272 6.93385C47.5604 6.93385 47.9776 7.10731 48.2789 7.46581C48.5802 7.8243 48.7425 8.3447 48.7425 9.027C48.7193 9.72086 48.5918 10.2644 48.3021 10.6229ZM53.6448 8.49503C53.1696 8.29844 52.8683 8.1481 52.7292 8.0209C52.6133 7.90525 52.5554 7.74335 52.5554 7.53519C52.5554 7.36173 52.6249 7.18826 52.7988 7.07262C52.9726 6.95697 53.1696 6.89915 53.4594 6.89915C53.7143 6.89915 53.9809 6.94541 54.2358 7.0148C54.4908 7.08418 54.7226 7.18826 54.908 7.32703L54.966 7.37329V5.96244L54.9312 5.95087C54.7574 5.88149 54.5256 5.8121 54.2474 5.75428C53.9693 5.70802 53.7143 5.68489 53.5057 5.68489C52.7872 5.68489 52.1961 5.85836 51.7325 6.23998C51.269 6.59848 51.0488 7.08418 51.0488 7.65084C51.0488 7.95151 51.0951 8.21749 51.1994 8.43721C51.3037 8.65694 51.4544 8.8651 51.663 9.03856C51.8716 9.20046 52.1729 9.38549 52.5902 9.55896C52.9378 9.70929 53.2044 9.82494 53.3666 9.91745C53.5289 10.01 53.6332 10.114 53.7143 10.195C53.7723 10.2875 53.807 10.4032 53.807 10.5535C53.807 10.9814 53.4825 11.1895 52.8219 11.1895C52.567 11.1895 52.3004 11.1433 51.9875 11.0392C51.6746 10.9351 51.3849 10.7848 51.1415 10.6113L51.0835 10.5651V12.0337L51.1183 12.0453C51.3385 12.1494 51.6051 12.2188 51.9296 12.2997C52.2541 12.3575 52.5438 12.4038 52.7988 12.4038C53.5752 12.4038 54.2127 12.2303 54.6647 11.8487C55.1282 11.4786 55.3716 11.0045 55.3716 10.3916C55.3716 9.96371 55.2557 9.58209 55.0007 9.29298C54.6647 9.01543 54.2474 8.72632 53.6448 8.49503ZM59.3468 5.69646C58.2921 5.69646 57.4461 6.0087 56.855 6.62161C56.264 7.23452 55.9627 8.07872 55.9627 9.14264C55.9627 10.1372 56.264 10.9467 56.8435 11.5365C57.4229 12.1147 58.211 12.4154 59.1961 12.4154C60.2276 12.4154 61.0504 12.1031 61.6415 11.4786C62.2441 10.8542 62.5339 10.0215 62.5339 8.9923C62.5339 7.97464 62.2557 7.16513 61.6878 6.57535C61.1431 5.98557 60.3435 5.69646 59.3468 5.69646ZM60.5405 10.6229C60.2623 10.9814 59.8219 11.1548 59.2772 11.1548C58.7209 11.1548 58.2921 10.9814 57.9792 10.5998C57.6663 10.2413 57.5156 9.72086 57.5156 9.06169C57.5156 8.37939 57.6779 7.85899 57.9792 7.48893C58.2921 7.11888 58.7209 6.93385 59.2656 6.93385C59.7872 6.93385 60.216 7.10731 60.5173 7.46581C60.8186 7.8243 60.9809 8.3447 60.9809 9.027C60.9809 9.72086 60.8302 10.2644 60.5405 10.6229ZM70.5885 7.07262V5.83523H69.0703V3.93867L69.0239 3.95024L67.5868 4.37812L67.5521 4.38968V5.83523H65.2805V5.02572C65.2805 4.65566 65.3733 4.36656 65.5355 4.18153C65.6978 3.9965 65.9411 3.90398 66.2425 3.90398C66.4511 3.90398 66.6713 3.95024 66.9147 4.05432L66.9726 4.08901V2.78224L66.9378 2.77067C66.7292 2.70129 66.4511 2.65503 66.0918 2.65503C65.6398 2.65503 65.2458 2.75911 64.8865 2.93257C64.5272 3.12917 64.2607 3.39515 64.0637 3.75364C63.8666 4.10058 63.7623 4.49376 63.7623 4.94477V5.83523H62.7077V7.06105H63.7623V12.2419H65.2805V7.07262H67.5521V10.3685C67.5521 11.7215 68.1895 12.4038 69.4643 12.4038C69.6729 12.4038 69.8931 12.3691 70.1017 12.3344C70.3219 12.2881 70.4842 12.2303 70.5769 12.1841L70.5885 12.1725V10.9351L70.5306 10.9814C70.4378 11.0392 70.3567 11.0855 70.2176 11.1201C70.1017 11.1548 69.9974 11.1664 69.9163 11.1664C69.615 11.1664 69.4064 11.097 69.2557 10.9236C69.1166 10.7617 69.0471 10.4957 69.0471 10.1025V7.07262H70.5885Z" fill="#737373"/>
<path d="M0.600098 0.330566H7.7044V7.41952H0.600098V0.330566Z" fill="#F25022"/>
<path d="M8.44604 0.330566H15.5504V7.41952H8.44604V0.330566Z" fill="#7FBA00"/>
<path d="M0.600098 8.15967H7.7044V15.2486H0.600098V8.15967Z" fill="#00A4EF"/>
<path d="M8.44604 8.15967H15.5504V15.2486H8.44604V8.15967Z" fill="#FFB900"/>
</g>
<defs>
<clipPath id="clip0_86_1666">
<rect width="70" height="14.918" fill="white" transform="translate(0.600098 0.330566)"/>
</clipPath>
</defs>
</svg>
