<svg width="71" height="24" viewBox="0 0 71 24" fill="none" xmlns="http://www.w3.org/2000/svg">
<g clip-path="url(#clip0_86_1650)">
<path d="M29.9885 12.0918C29.9885 15.3647 27.4175 17.7764 24.2624 17.7764C21.1072 17.7764 18.5363 15.3647 18.5363 12.0918C18.5363 8.79588 21.1072 6.40723 24.2624 6.40723C27.4175 6.40723 29.9885 8.79588 29.9885 12.0918ZM27.4818 12.0918C27.4818 10.0466 25.9918 8.64723 24.2624 8.64723C22.5329 8.64723 21.0429 10.0466 21.0429 12.0918C21.0429 14.1165 22.5329 15.5364 24.2624 15.5364C25.9918 15.5364 27.4818 14.114 27.4818 12.0918Z" fill="#EA4335"/>
<path d="M42.3415 12.0918C42.3415 15.3647 39.7705 17.7764 36.6154 17.7764C33.4602 17.7764 30.8893 15.3647 30.8893 12.0918C30.8893 8.79844 33.4602 6.40723 36.6154 6.40723C39.7705 6.40723 42.3415 8.79588 42.3415 12.0918ZM39.8349 12.0918C39.8349 10.0466 38.3448 8.64723 36.6154 8.64723C34.886 8.64723 33.3959 10.0466 33.3959 12.0918C33.3959 14.1165 34.886 15.5364 36.6154 15.5364C38.3448 15.5364 39.8349 14.114 39.8349 12.0918Z" fill="#FBBC05"/>
<path d="M54.1797 6.75066V16.9562C54.1797 21.1543 51.6937 22.8689 48.7547 22.8689C45.9882 22.8689 44.3231 21.0262 43.6951 19.5192L45.8775 18.6145C46.2661 19.5397 47.2183 20.6315 48.7521 20.6315C50.6334 20.6315 51.7992 19.4756 51.7992 17.2997V16.4821H51.7117C51.1507 17.1715 50.0698 17.7738 48.7058 17.7738C45.8518 17.7738 43.2371 15.298 43.2371 12.1123C43.2371 8.90352 45.8518 6.40723 48.7058 6.40723C50.0672 6.40723 51.1481 7.00951 51.7117 7.67844H51.7992V6.75322H54.1797V6.75066ZM51.9768 12.1123C51.9768 10.1107 50.636 8.64723 48.9297 8.64723C47.2003 8.64723 45.7514 10.1107 45.7514 12.1123C45.7514 14.0935 47.2003 15.5364 48.9297 15.5364C50.636 15.5364 51.9768 14.0935 51.9768 12.1123Z" fill="#4285F4"/>
<path d="M58.1044 0.768799V17.4278H55.6595V0.768799H58.1044Z" fill="#34A853"/>
<path d="M67.6316 13.9629L69.5772 15.2546C68.9493 16.1798 67.436 17.7739 64.8213 17.7739C61.5787 17.7739 59.157 15.2776 59.157 12.0894C59.157 8.70886 61.5993 6.40479 64.5408 6.40479C67.5029 6.40479 68.9518 8.75243 69.4254 10.0211L69.6853 10.6669L62.0548 13.8142C62.639 14.9547 63.5474 15.5365 64.8213 15.5365C66.0978 15.5365 66.9831 14.9111 67.6316 13.9629ZM61.643 11.9176L66.7438 9.80836C66.4632 9.09842 65.6191 8.60378 64.6257 8.60378C63.3518 8.60378 61.5787 9.72378 61.643 11.9176Z" fill="#EA4335"/>
<path d="M9.28206 10.613V8.20128H17.4427C17.5225 8.6216 17.5637 9.1188 17.5637 9.65702C17.5637 11.4664 17.067 13.7039 15.4663 15.298C13.9093 16.9127 11.9199 17.7738 9.28464 17.7738C4.40008 17.7738 0.292725 13.8115 0.292725 8.94709C0.292725 4.08265 4.40008 0.120361 9.28464 0.120361C11.9868 0.120361 13.9118 1.17629 15.3582 2.55258L13.6493 4.25437C12.6122 3.28558 11.2071 2.53208 9.28206 2.53208C5.71515 2.53208 2.92545 5.39487 2.92545 8.94709C2.92545 12.4993 5.71515 15.3621 9.28206 15.3621C11.5957 15.3621 12.9133 14.4369 13.7574 13.5962C14.442 12.9145 14.8924 11.9406 15.0699 10.6104L9.28206 10.613Z" fill="#4285F4"/>
</g>
<defs>
<clipPath id="clip0_86_1650">
<rect width="70" height="23.5789" fill="white" transform="translate(0.199951)"/>
</clipPath>
</defs>
</svg>
