<svg width="71" height="23" viewBox="0 0 71 23" fill="none" xmlns="http://www.w3.org/2000/svg">
<g clip-path="url(#clip0_86_1657)">
<path fill-rule="evenodd" clip-rule="evenodd" d="M43.8266 17.9231C39.7588 21.0142 33.8627 22.6634 28.7863 22.6634C21.6684 22.6634 15.2605 19.9493 10.4126 15.4352C10.0317 15.0802 10.373 14.5964 10.8301 14.8728C16.0618 18.0111 22.5307 19.899 29.2129 19.899C33.7195 19.899 38.6771 18.9378 43.2355 16.943C43.9241 16.6414 44.5 17.4079 43.8266 17.9231Z" fill="#FF9900"/>
<path fill-rule="evenodd" clip-rule="evenodd" d="M45.5179 15.9282C44.9999 15.2434 42.0809 15.6047 40.7706 15.7649C40.3715 15.8152 40.3105 15.457 40.6701 15.1994C42.995 13.5125 46.8099 13.9994 47.2547 14.5649C47.6996 15.1335 47.1389 19.0759 44.9542 20.9575C44.619 21.2465 44.2991 21.0926 44.4484 20.7094C44.939 19.4465 46.039 16.6162 45.5179 15.9282Z" fill="#FF9900"/>
<path fill-rule="evenodd" clip-rule="evenodd" d="M40.8619 3.29053V1.65074C40.8619 1.40258 41.0447 1.23608 41.2641 1.23608H48.3851C48.6136 1.23608 48.7965 1.40572 48.7965 1.65074V3.05493C48.7934 3.29053 48.6014 3.59838 48.2602 4.08529L44.5702 9.51668C45.9414 9.48213 47.3887 9.6926 48.6319 10.4151C48.9122 10.5785 48.9884 10.8172 49.0098 11.0528V12.8025C49.0098 13.0413 48.7538 13.3209 48.4857 13.1764C46.2948 11.9921 43.3849 11.8633 40.9625 13.1889C40.7157 13.3271 40.4567 13.0507 40.4567 12.812V11.1502C40.4567 10.8832 40.4597 10.4277 40.7187 10.0224L44.9937 3.70204H41.2733C41.0447 3.70204 40.8619 3.53555 40.8619 3.29053Z" fill="black"/>
<path fill-rule="evenodd" clip-rule="evenodd" d="M14.8857 13.5219H12.7193C12.5121 13.5062 12.3475 13.346 12.3323 13.1418V1.67904C12.3323 1.44972 12.5181 1.26752 12.7497 1.26752H14.7699C14.9802 1.27694 15.1478 1.44343 15.163 1.65076V3.14919H15.2026C15.7297 1.70102 16.72 1.02563 18.0546 1.02563C19.4106 1.02563 20.2577 1.70102 20.8671 3.14919C21.3912 1.70102 22.5826 1.02563 23.8593 1.02563C24.7673 1.02563 25.7607 1.41202 26.367 2.27903C27.0526 3.24343 26.9124 4.64447 26.9124 5.87274L26.9094 13.1073C26.9094 13.3366 26.7235 13.5219 26.4919 13.5219H24.3285C24.1122 13.5062 23.9385 13.3272 23.9385 13.1073V7.03189C23.9385 6.54813 23.9812 5.34185 23.8776 4.88321C23.7161 4.11358 23.2316 3.89683 22.6039 3.89683C22.0798 3.89683 21.5313 4.25808 21.3089 4.83609C21.0865 5.4141 21.1078 6.38163 21.1078 7.03189V13.1073C21.1078 13.3366 20.9219 13.5219 20.6903 13.5219H18.5269C18.3076 13.5062 18.1369 13.3272 18.1369 13.1073L18.1339 7.03189C18.1339 5.75336 18.338 3.8717 16.7993 3.8717C15.2422 3.8717 15.3032 5.70624 15.3032 7.03189V13.1073C15.3032 13.3366 15.1173 13.5219 14.8857 13.5219" fill="black"/>
<path fill-rule="evenodd" clip-rule="evenodd" d="M54.9271 1.02563C58.1417 1.02563 59.8816 3.8717 59.8816 7.49053C59.8816 10.9869 57.9589 13.7607 54.9271 13.7607C51.7703 13.7607 50.0518 10.9146 50.0518 7.36802C50.0518 3.79945 51.7916 1.02563 54.9271 1.02563ZM54.9453 3.36594C53.3487 3.36594 53.2481 5.60886 53.2481 7.00676C53.2481 8.40781 53.2268 11.3984 54.9271 11.3984C56.606 11.3984 56.6852 8.98582 56.6852 7.51566C56.6852 6.54813 56.6456 5.39211 56.3622 4.47484C56.1185 3.67694 55.634 3.36594 54.9453 3.36594Z" fill="black"/>
<path fill-rule="evenodd" clip-rule="evenodd" d="M64.05 13.5219H61.8927C61.6764 13.5062 61.5027 13.3272 61.5027 13.1073L61.4996 1.64134C61.5179 1.43087 61.6977 1.26752 61.9171 1.26752H63.9251C64.114 1.27694 64.2694 1.40888 64.3121 1.58794V3.34081H64.3517C64.958 1.77328 65.8082 1.02563 67.3043 1.02563C68.2763 1.02563 69.2239 1.38689 69.8333 2.37641C70.4001 3.29369 70.4001 4.83609 70.4001 5.94498V13.1607C70.3757 13.3617 70.1959 13.5219 69.9826 13.5219H67.8101C67.612 13.5062 67.4475 13.3554 67.4262 13.1607V6.93451C67.4262 5.68111 67.5663 3.84656 66.0702 3.84656C65.5431 3.84656 65.0586 4.21096 64.8179 4.76384C64.5132 5.46436 64.4736 6.16174 64.4736 6.93451V13.1073C64.4705 13.3366 64.2816 13.5219 64.05 13.5219" fill="black"/>
<path fill-rule="evenodd" clip-rule="evenodd" d="M35.1852 8.04664C35.1852 8.91679 35.2066 9.64244 34.78 10.4152C34.4356 11.0435 33.8872 11.4299 33.2808 11.4299C32.449 11.4299 31.9614 10.7765 31.9614 9.81207C31.9614 7.90842 33.616 7.56287 35.1852 7.56287V8.04664ZM37.37 13.4906C37.2268 13.6225 37.0195 13.632 36.8581 13.544C36.1389 12.9283 36.0079 12.6424 35.6149 12.055C34.4265 13.3053 33.5825 13.6791 32.0437 13.6791C30.2185 13.6791 28.8016 12.5199 28.8016 10.1985C28.8016 8.3859 29.7523 7.15135 31.1113 6.54821C32.2875 6.01418 33.9298 5.91994 35.1852 5.7723V5.48329C35.1852 4.9524 35.2248 4.32414 34.9201 3.8655C34.6581 3.45398 34.1523 3.28435 33.7044 3.28435C32.8786 3.28435 32.1443 3.721 31.9645 4.62571C31.9279 4.82675 31.7847 5.02466 31.5866 5.03408L29.4872 4.80162C29.3105 4.76078 29.1124 4.61314 29.1642 4.33356C29.6457 1.70739 31.9492 0.915771 34.0091 0.915771C35.0633 0.915771 36.4406 1.20478 37.2725 2.02781C38.3267 3.04246 38.2262 4.39639 38.2262 5.86968V9.3503C38.2262 10.3964 38.6467 10.855 39.0428 11.4204C39.1799 11.6215 39.2104 11.8634 39.0336 12.0142C38.5918 12.3943 37.8057 13.1011 37.373 13.4969L37.37 13.4906" fill="black"/>
<path fill-rule="evenodd" clip-rule="evenodd" d="M6.78361 8.04688C6.78361 8.91703 6.80493 9.64268 6.37835 10.4155C6.03403 11.0437 5.48861 11.4301 4.8792 11.4301C4.04735 11.4301 3.56287 10.7767 3.56287 9.81231C3.56287 7.90866 5.21742 7.56311 6.78361 7.56311V8.04688ZM8.96834 13.4908C8.82513 13.6228 8.61793 13.6322 8.45644 13.5442C7.73733 12.9285 7.60936 12.6427 7.21324 12.0552C6.02489 13.3055 5.1839 13.6793 3.64209 13.6793C1.81995 13.6793 0.400024 12.5202 0.400024 10.1987C0.400024 8.38614 1.35375 7.15159 2.70969 6.54845C3.88585 6.01442 5.52822 5.92019 6.78361 5.77254V5.48354C6.78361 4.95265 6.82322 4.32438 6.52156 3.86574C6.25646 3.45423 5.75065 3.28459 5.30578 3.28459C4.48003 3.28459 3.74264 3.72124 3.56287 4.62595C3.5263 4.827 3.38309 5.0249 3.18808 5.03432L1.08561 4.80186C0.908882 4.76103 0.713871 4.61338 0.762624 4.3338C1.24711 1.70764 3.54763 0.916016 5.60744 0.916016C6.66172 0.916016 8.03899 1.20502 8.87084 2.02805C9.92512 3.04271 9.82456 4.39663 9.82456 5.86992V9.35054C9.82456 10.3966 10.2451 10.8552 10.6412 11.4207C10.7813 11.6217 10.8118 11.8636 10.6351 12.0144C10.1933 12.3945 9.40712 13.1013 8.97443 13.4971L8.96835 13.4908" fill="black"/>
</g>
<defs>
<clipPath id="clip0_86_1657">
<rect width="70" height="21.7476" fill="white" transform="translate(0.400024 0.915771)"/>
</clipPath>
</defs>
</svg>
