<svg width="32" height="33" viewBox="0 0 32 33" fill="none" xmlns="http://www.w3.org/2000/svg">
<path fill-rule="evenodd" clip-rule="evenodd" d="M0 16.4004C0 7.56384 7.16344 0.400391 16 0.400391C24.8366 0.400391 32 7.56384 32 16.4004C32 25.2369 24.8366 32.4004 16 32.4004C7.16344 32.4004 0 25.2369 0 16.4004Z" fill="#4E4D4D"/>
<path fill-rule="evenodd" clip-rule="evenodd" d="M16.0008 7.86707C13.6833 7.86707 13.3924 7.8772 12.4822 7.91862C11.5737 7.96022 10.9536 8.10405 10.4111 8.31507C9.84981 8.53303 9.37372 8.82459 8.8994 9.29908C8.42473 9.7734 8.13317 10.2495 7.9145 10.8106C7.70294 11.3533 7.55894 11.9736 7.51805 12.8817C7.47734 13.7919 7.46667 14.083 7.46667 16.4005C7.46667 18.718 7.47699 19.008 7.51823 19.9182C7.56001 20.8267 7.70383 21.4468 7.91468 21.9893C8.13282 22.5506 8.42437 23.0267 8.89887 23.501C9.37301 23.9757 9.8491 24.2679 10.41 24.4859C10.9529 24.6969 11.5732 24.8408 12.4815 24.8824C13.3917 24.9238 13.6824 24.9339 15.9997 24.9339C18.3175 24.9339 18.6074 24.9238 19.5176 24.8824C20.4261 24.8408 21.0469 24.6969 21.5898 24.4859C22.1509 24.2679 22.6263 23.9757 23.1004 23.501C23.5751 23.0267 23.8667 22.5506 24.0853 21.9895C24.2951 21.4468 24.4391 20.8265 24.4818 19.9184C24.5227 19.0082 24.5333 18.718 24.5333 16.4005C24.5333 14.083 24.5227 13.7921 24.4818 12.8819C24.4391 11.9734 24.2951 11.3533 24.0853 10.8107C23.8667 10.2495 23.5751 9.7734 23.1004 9.29908C22.6258 8.82441 22.1511 8.53285 21.5893 8.31507C21.0453 8.10405 20.4249 7.96022 19.5164 7.91862C18.6062 7.8772 18.3164 7.86707 15.9981 7.86707H16.0008ZM15.2353 9.40484C15.4625 9.40448 15.716 9.40484 16.0008 9.40484C18.2792 9.40484 18.5492 9.41301 19.449 9.4539C20.281 9.49195 20.7326 9.63097 21.0334 9.74777C21.4316 9.90244 21.7155 10.0873 22.014 10.386C22.3127 10.6847 22.4976 10.9691 22.6526 11.3673C22.7694 11.6678 22.9086 12.1194 22.9464 12.9514C22.9873 13.8509 22.9962 14.1212 22.9962 16.3985C22.9962 18.6759 22.9873 18.9461 22.9464 19.8457C22.9084 20.6777 22.7694 21.1292 22.6526 21.4297C22.4979 21.8279 22.3127 22.1115 22.014 22.4099C21.7153 22.7086 21.4318 22.8935 21.0334 23.0482C20.7329 23.1655 20.281 23.3042 19.449 23.3422C18.5494 23.3831 18.2792 23.392 16.0008 23.392C13.7222 23.392 13.4521 23.3831 12.5526 23.3422C11.7205 23.3038 11.269 23.1648 10.968 23.048C10.5698 22.8933 10.2853 22.7084 9.98666 22.4098C9.68799 22.1111 9.5031 21.8274 9.34808 21.429C9.23128 21.1285 9.09208 20.677 9.05421 19.8449C9.01332 18.9454 9.00514 18.6752 9.00514 16.3964C9.00514 14.1176 9.01332 13.8488 9.05421 12.9492C9.09226 12.1172 9.23128 11.6657 9.34808 11.3649C9.50275 10.9666 9.68799 10.6822 9.98666 10.3835C10.2853 10.0848 10.5698 9.89995 10.968 9.74493C11.2688 9.62759 11.7205 9.48892 12.5526 9.4507C13.3398 9.41515 13.6448 9.40448 15.2353 9.4027V9.40484ZM20.5558 10.8217C19.9905 10.8217 19.5318 11.2799 19.5318 11.8454C19.5318 12.4107 19.9905 12.8694 20.5558 12.8694C21.1212 12.8694 21.5799 12.4107 21.5799 11.8454C21.5799 11.2801 21.1212 10.8217 20.5558 10.8217ZM16.0008 12.0182C13.5807 12.0182 11.6186 13.9804 11.6186 16.4005C11.6186 18.8206 13.5807 20.7818 16.0008 20.7818C18.4209 20.7818 20.3824 18.8206 20.3824 16.4005C20.3824 13.9804 18.4209 12.0182 16.0008 12.0182ZM16.0008 13.556C17.5717 13.556 18.8453 14.8294 18.8453 16.4005C18.8453 17.9713 17.5717 19.2449 16.0008 19.2449C14.4298 19.2449 13.1563 17.9713 13.1563 16.4005C13.1563 14.8294 14.4298 13.556 16.0008 13.556Z" fill="white"/>
</svg>
