<svg width="71" height="22" viewBox="0 0 71 22" fill="none" xmlns="http://www.w3.org/2000/svg">
<g clip-path="url(#clip0_86_1672)">
<path d="M52.8547 20.6611L58.6924 14.1955L52.8547 7.729H59.0141L61.9054 10.87L64.6896 7.729H70.6341L64.8241 14.1688L70.7139 20.6611H64.5292L61.6641 17.4943L58.826 20.6611H52.8547Z" fill="#FF6600"/>
<path d="M52.8547 4.83005H46.2431V7.72895H52.8547V12.0979H46.2431V16.108H52.8547V20.6611H41.3835V0.289551H52.8547V4.83005Z" fill="#FF6600"/>
<path d="M36.5445 0.289551V8.62655H36.4912C35.4199 7.41275 34.0814 6.99095 32.5283 6.99095C29.347 6.99095 26.9505 9.12275 26.1093 11.9412C25.15 8.83565 22.676 6.93275 19.0074 6.93275C16.0281 6.93275 13.6755 8.25095 12.4477 10.399V7.72925H6.28957V4.83065H13.0099V0.289551H0.800049V20.6613H6.28957V12.0978H11.7611C11.598 12.7269 11.511 13.4004 11.511 14.1111C11.511 18.3606 14.8043 21.3424 19.0074 21.3424C22.5417 21.3424 24.8709 19.7067 26.1029 16.7248H21.3986C20.7622 17.6206 20.2795 17.8867 19.0074 17.8867C17.5322 17.8867 16.2603 16.618 16.2603 15.114H25.8394C26.2548 18.4893 28.9221 21.4003 32.5825 21.4003C34.1614 21.4003 35.6071 20.6346 36.4912 19.3419H36.5445V20.6607H41.3836V0.289551H36.5445ZM16.4131 12.1587C16.7184 10.8649 17.7364 10.0191 19.0074 10.0191C20.4064 10.0191 21.3727 10.8387 21.6269 12.1587C21.734 12.1587 16.4131 12.1587 16.4131 12.1587ZM33.6078 17.5594C31.824 17.5594 30.7156 15.9211 30.7156 14.2105C30.7156 12.382 31.6798 10.6236 33.6078 10.6236C35.6071 10.6236 36.4036 12.382 36.4036 14.2105C36.4033 15.9444 35.5593 17.5594 33.6078 17.5594Z" fill="#652C8F"/>
</g>
<defs>
<clipPath id="clip0_86_1672">
<rect width="70" height="21" fill="white" transform="translate(0.800049 0.289551)"/>
</clipPath>
</defs>
</svg>
