<svg width="32" height="33" viewBox="0 0 32 33" fill="none" xmlns="http://www.w3.org/2000/svg">
<path fill-rule="evenodd" clip-rule="evenodd" d="M0 16.4004C0 7.56384 7.16344 0.400391 16 0.400391C24.8366 0.400391 32 7.56384 32 16.4004C32 25.2369 24.8366 32.4004 16 32.4004C7.16344 32.4004 0 25.2369 0 16.4004Z" fill="#E5F4F2"/>
<path fill-rule="evenodd" clip-rule="evenodd" d="M15.5208 13.4054L15.5544 13.959L14.9948 13.8912C12.9579 13.6313 11.1784 12.75 9.66756 11.2699L8.92891 10.5355L8.73865 11.0778C8.33575 12.2868 8.59316 13.5635 9.43253 14.4222C9.8802 14.8968 9.77948 14.9646 9.00725 14.6821C8.73865 14.5917 8.50363 14.5239 8.48124 14.5578C8.4029 14.6369 8.6715 15.6651 8.88414 16.0719C9.17513 16.6368 9.76828 17.1904 10.4174 17.5181L10.9658 17.778L10.3167 17.7893C9.68994 17.7893 9.66756 17.8006 9.73471 18.0378C9.95854 18.7722 10.8427 19.5519 11.8276 19.8908L12.5214 20.1281L11.9171 20.4896C11.0218 21.0094 9.96973 21.3032 8.91772 21.3258C8.41409 21.3371 8 21.3822 8 21.4161C8 21.5291 9.36538 22.1619 10.16 22.4104C12.5438 23.1448 15.3753 22.8285 17.5017 21.5743C19.0126 20.6817 20.5235 18.9078 21.2286 17.1904C21.6091 16.2752 21.9896 14.603 21.9896 13.8008C21.9896 13.2811 22.0232 13.2133 22.6499 12.5919C23.0192 12.2303 23.3662 11.8348 23.4333 11.7219C23.5452 11.5072 23.534 11.5072 22.9633 11.6993C22.012 12.0382 21.8777 11.993 22.3477 11.4846C22.6947 11.123 23.1088 10.4677 23.1088 10.2756C23.1088 10.2417 22.9409 10.2982 22.7506 10.3999C22.5492 10.5129 22.1015 10.6824 21.7658 10.7841L21.1614 10.9761L20.613 10.6033C20.3108 10.3999 19.8856 10.1739 19.6617 10.1061C19.0909 9.94797 18.218 9.97056 17.7032 10.1513C16.3042 10.6598 15.4201 11.9704 15.5208 13.4054Z" fill="#2D2D2D"/>
</svg>
