<svg width="32" height="33" viewBox="0 0 32 33" fill="none" xmlns="http://www.w3.org/2000/svg">
<path fill-rule="evenodd" clip-rule="evenodd" d="M0 16.4004C0 7.56384 7.16344 0.400391 16 0.400391C24.8366 0.400391 32 7.56384 32 16.4004C32 25.2369 24.8366 32.4004 16 32.4004C7.16344 32.4004 0 25.2369 0 16.4004Z" fill="#E5F4F2"/>
<path fill-rule="evenodd" clip-rule="evenodd" d="M24.5333 16.3886C24.5333 16.9657 24.4746 17.542 24.3592 18.1037C24.2467 18.6521 24.08 19.1905 23.8616 19.7052C23.6483 20.2108 23.3837 20.698 23.0745 21.1524C22.77 21.6038 22.4191 22.0274 22.0336 22.4135C21.6474 22.798 21.2224 23.1479 20.7711 23.4538C20.3152 23.7608 19.8273 24.025 19.3214 24.2393C18.806 24.4565 18.2664 24.6229 17.7184 24.7353C17.1559 24.851 16.5775 24.91 15.9996 24.91C15.4212 24.91 14.8429 24.851 14.2812 24.7353C13.7324 24.6229 13.1928 24.4565 12.6778 24.2393C12.1719 24.025 11.6836 23.7608 11.2277 23.4538C10.7764 23.1479 10.3514 22.798 9.96597 22.4135C9.58013 22.0274 9.22926 21.6038 8.92425 21.1524C8.61673 20.698 8.3517 20.2108 8.13754 19.7052C7.91917 19.1905 7.7521 18.6521 7.63917 18.1037C7.52501 17.542 7.46666 16.9657 7.46666 16.3886C7.46666 15.811 7.52498 15.2335 7.63921 14.673C7.75213 14.1246 7.9192 13.5854 8.13757 13.0715C8.35173 12.5655 8.61677 12.0779 8.92428 11.6235C9.2293 11.1717 9.58017 10.7489 9.96601 10.3623C10.3514 9.97785 10.7765 9.62879 11.2277 9.32339C11.6836 9.01505 12.172 8.75086 12.6778 8.53614C13.1928 8.31849 13.7324 8.15166 14.2812 8.04016C14.8429 7.92533 15.4213 7.86707 15.9996 7.86707C16.5776 7.86707 17.1559 7.92533 17.7185 8.04016C18.2664 8.15169 18.806 8.31852 19.3215 8.53614C19.8273 8.75083 20.3153 9.01505 20.7711 9.32339C21.2224 9.62879 21.6474 9.97785 22.0337 10.3623C22.4191 10.7489 22.77 11.1717 23.0746 11.6235C23.3837 12.0779 23.6483 12.5656 23.8616 13.0715C24.08 13.5854 24.2467 14.1246 24.3592 14.673C24.4746 15.2335 24.5333 15.811 24.5333 16.3886ZM12.8902 9.80645C10.858 10.7647 9.34129 12.6346 8.86834 14.8881C9.06046 14.8898 12.0973 14.9281 15.5962 13.9998C14.3349 11.762 12.9873 9.93588 12.8902 9.80645ZM16.2 15.1203C12.4477 16.2421 8.8471 16.1614 8.71794 16.1564C8.71583 16.2346 8.71209 16.3103 8.71209 16.3886C8.71209 18.258 9.41838 19.9623 10.5793 21.251C10.5768 21.2472 12.5711 17.7142 16.5038 16.4443C16.5987 16.4127 16.6954 16.3844 16.7913 16.3569C16.6084 15.9434 16.4087 15.5289 16.2 15.1203ZM20.8123 10.927C19.5293 9.79728 17.8447 9.11203 15.9996 9.11203C15.4075 9.11203 14.8328 9.1836 14.2824 9.31591C14.3916 9.46239 15.7604 11.2757 17.0067 13.5608C19.7565 12.5314 20.7944 10.9536 20.8123 10.927ZM17.288 17.5628C17.2718 17.5681 17.2556 17.5728 17.2397 17.5786C12.94 19.0754 11.5358 22.0918 11.5206 22.1247C12.7578 23.0855 14.3095 23.6651 15.9996 23.6651C17.0088 23.6651 17.9701 23.4599 18.8447 23.0884C18.7368 22.4526 18.3135 20.2241 17.288 17.5628ZM20.0719 22.4235C21.7082 21.3209 22.8703 19.57 23.1945 17.5419C23.0445 17.4937 21.0057 16.8491 18.6534 17.2257C19.6093 19.8488 19.9977 21.985 20.0719 22.4235ZM17.5676 14.6451C17.7368 14.9922 17.9006 15.3454 18.0518 15.7003C18.1056 15.8277 18.1581 15.9525 18.2093 16.0773C20.7128 15.7627 23.1791 16.292 23.2846 16.3136C23.2679 14.5885 22.65 13.0053 21.6274 11.7658C21.6137 11.7853 20.4449 13.4717 17.5676 14.6451Z" fill="#2D2D2D"/>
</svg>
