<svg width="70" height="23" viewBox="0 0 70 23" fill="none" xmlns="http://www.w3.org/2000/svg">
<path d="M20.0664 16.3288C19.9566 16.0637 19.8536 15.7851 19.7438 15.5472L19.236 14.4123L19.2154 14.3919C17.7056 11.1298 16.0928 7.81326 14.384 4.55112L14.3154 4.4152C14.1438 4.09578 13.9722 3.74238 13.7938 3.41617C13.5742 3.02879 13.3615 2.61423 13.0115 2.22005C12.6703 1.80762 12.2409 1.47533 11.7543 1.24716C11.2678 1.01899 10.7361 0.900635 10.1977 0.900635C9.65935 0.900635 9.12769 1.01899 8.64111 1.24716C8.15453 1.47533 7.72517 1.80762 7.384 2.22005C7.06145 2.61423 6.82126 3.02879 6.60165 3.41617C6.43008 3.76957 6.25851 4.11617 6.08008 4.43559L6.01145 4.57151C4.33008 7.83365 2.68988 11.1502 1.18008 14.4123L1.1389 14.4531C0.987922 14.8065 0.809491 15.1735 0.637922 15.5676C0.528118 15.8055 0.418315 16.0637 0.308511 16.3492C0.0120624 17.0966 -0.0826029 17.9076 0.0338445 18.7023C0.150292 19.497 0.473833 20.2479 0.97258 20.8811C1.47133 21.5143 2.12807 22.0078 2.87808 22.3131C3.62809 22.6183 4.44547 22.7248 5.24969 22.622C6.0207 22.5215 6.76311 22.2672 7.43204 21.8744C8.3242 21.3783 9.18204 20.6579 10.1428 19.6181C11.1036 20.6579 11.982 21.3783 12.8536 21.8812C13.6918 22.3684 14.6409 22.6373 15.6124 22.6628C16.7375 22.6674 17.8262 22.2688 18.6777 21.5405C19.5291 20.8123 20.0857 19.8036 20.2448 18.7006C20.4286 17.9081 20.3664 17.079 20.0664 16.322V16.3288ZM10.2115 17.4569C9.03106 15.9618 8.26243 14.589 8.00165 13.4133C7.8936 12.9776 7.87031 12.5255 7.93302 12.0812C7.98106 11.7346 8.11145 11.4288 8.28988 11.1705C8.70165 10.5793 9.42224 10.2123 10.2115 10.2123C10.5863 10.2009 10.958 10.2819 11.2934 10.448C11.6288 10.6141 11.9173 10.86 12.133 11.1637C12.3115 11.4356 12.4418 11.7346 12.483 12.0812C12.5517 12.4754 12.5242 12.9307 12.4144 13.4133C12.1536 14.5686 11.385 15.955 10.2115 17.4569ZM18.9546 18.4628C18.8766 19.0227 18.6518 19.5527 18.3027 19.9998C17.9535 20.447 17.4921 20.7957 16.9644 21.0113C16.4428 21.2288 15.8664 21.29 15.3036 21.2288C14.7546 21.1608 14.2056 20.9841 13.6428 20.6579C12.7085 20.086 11.8683 19.3755 11.1516 18.5511C12.5928 16.7841 13.4644 15.1735 13.7938 13.7395C13.9517 13.0599 13.9722 12.4482 13.9036 11.8841C13.8179 11.3495 13.6166 10.8395 13.3134 10.389C12.9673 9.90052 12.5052 9.50375 11.9679 9.23357C11.4306 8.96338 10.8345 8.82805 10.232 8.83947C8.96243 8.83947 7.83008 9.42394 7.14381 10.3822C6.83487 10.8315 6.63521 11.3456 6.56047 11.8841C6.47126 12.455 6.49184 13.087 6.67028 13.7395C6.99969 15.1735 7.89184 16.8045 9.31243 18.5647C8.60796 19.4048 7.76582 20.1216 6.82126 20.6851C6.25165 21.0113 5.70949 21.1812 5.16047 21.2492C4.30667 21.3575 3.4442 21.1277 2.76054 20.6097C2.07688 20.0918 1.62729 19.3276 1.50949 18.4832C1.44086 17.9395 1.4889 17.3958 1.70851 16.7841C1.77714 16.5667 1.88008 16.3492 1.98988 16.0909C2.14086 15.7375 2.3193 15.3705 2.49086 15.0035L2.51831 14.956C4.00067 11.7142 5.62028 8.40452 7.30165 5.16277L7.37028 5.02685C7.54184 4.70064 7.71341 4.35403 7.89184 4.02782C8.07028 3.68122 8.26243 3.34821 8.50949 3.07636C8.72334 2.82356 8.99056 2.62026 9.29232 2.48076C9.59407 2.34127 9.92304 2.26898 10.2561 2.26898C10.5891 2.26898 10.918 2.34127 11.2198 2.48076C11.5216 2.62026 11.7888 2.82356 12.0026 3.07636C12.2428 3.34821 12.4418 3.68122 12.6203 4.02782C12.7918 4.35403 12.9634 4.70743 13.1418 5.02685L13.2105 5.16277C14.885 8.40452 16.5046 11.7142 18.0144 14.956L18.035 14.9764C18.2134 15.3298 18.3644 15.7239 18.536 16.0637C18.6458 16.3288 18.7556 16.5395 18.8242 16.7637C18.9546 17.3754 19.0232 17.9191 18.9546 18.4628ZM28.5075 17.3074C27.9904 17.3149 27.4782 17.207 27.0089 16.9917C26.5396 16.7764 26.1253 16.4593 25.7967 16.0637C25.0584 15.221 24.6665 14.1344 24.6987 13.0191C24.6874 11.8795 25.0919 10.7742 25.8379 9.90646C26.183 9.50591 26.6125 9.18514 27.0963 8.96674C27.58 8.74834 28.1063 8.63763 28.6379 8.64238C29.1382 8.62882 29.6337 8.74147 30.0779 8.96973C30.5221 9.19799 30.9003 9.53437 31.1771 9.94724L31.2458 8.88025H33.2497V17.09H31.2389L31.1703 15.8938C30.8849 16.3347 30.4905 16.696 30.0244 16.9434C29.5584 17.1908 29.0362 17.3161 28.5075 17.3074ZM29.0291 15.3502C29.4271 15.3502 29.7771 15.2414 30.1066 15.0443C30.4085 14.8269 30.6556 14.5414 30.8477 14.1948C31.0193 13.8482 31.1085 13.4336 31.1085 12.9715C31.1353 12.5701 31.0564 12.1687 30.8795 11.8066C30.7027 11.4445 30.434 11.134 30.0997 10.9055C29.7785 10.7073 29.4076 10.6022 29.0291 10.6022C28.6506 10.6022 28.2797 10.7073 27.9585 10.9055C27.6566 11.123 27.4095 11.4084 27.2173 11.755C27.0359 12.1372 26.9466 12.556 26.9566 12.9783C26.9298 13.3797 27.0087 13.7811 27.1855 14.1432C27.3624 14.5054 27.6311 14.8158 27.9654 15.0443C28.2879 15.2414 28.6379 15.3502 29.0291 15.3502ZM36.6811 6.66471C36.6811 6.90258 36.6399 7.12005 36.5301 7.29675C36.4203 7.46666 36.2693 7.62297 36.0703 7.7317C35.8713 7.84044 35.6585 7.88122 35.4389 7.88122C35.2193 7.88122 34.9997 7.84044 34.8007 7.7317C34.6124 7.62793 34.4542 7.4782 34.3409 7.29675C34.2346 7.10315 34.1825 6.88495 34.1899 6.66471C34.1899 6.42005 34.2379 6.20258 34.3409 6.03267C34.4507 5.82879 34.6085 5.70646 34.8007 5.59772C34.9997 5.48899 35.2124 5.44141 35.4389 5.44141C35.6574 5.43643 35.8734 5.48766 36.0658 5.59011C36.2583 5.69255 36.4206 5.8427 36.5369 6.02588C36.6368 6.22402 36.6863 6.44332 36.6811 6.66471ZM34.3477 17.0628V8.86666H36.5301V17.0764H34.3409L34.3477 17.0628ZM42.3634 11.0142V11.0414C42.2605 10.9938 42.1232 10.9735 42.0203 10.9531C41.883 10.9259 41.7732 10.9259 41.6428 10.9259C41.032 10.9259 40.5722 11.1026 40.2703 11.4696C39.9409 11.8434 39.7899 12.3667 39.7899 13.0395V17.0696H37.6007V8.85986H39.6115L39.6801 10.1035C39.8997 9.6686 40.1605 9.34238 40.5311 9.09772C40.8997 8.86001 41.3336 8.74129 41.7732 8.75792C41.9311 8.75792 42.082 8.77151 42.2124 8.79869C42.2811 8.81908 42.3222 8.81908 42.3634 8.83947V11.0142ZM43.2418 17.0628V5.49578H45.4242V9.91326C45.733 9.51908 46.083 9.21326 46.5222 8.97539C47.2176 8.63778 48.0075 8.54202 48.7645 8.70355C49.5215 8.86507 50.2016 9.27447 50.6948 9.86568C51.4348 10.7102 51.8268 11.7995 51.7928 12.9171C51.8041 14.0567 51.3996 15.162 50.6536 16.0298C50.3086 16.4303 49.879 16.7511 49.3953 16.9695C48.9115 17.1879 48.3853 17.2986 47.8536 17.2938C47.3534 17.3074 46.8579 17.1948 46.4137 16.9665C45.9695 16.7382 45.5912 16.4019 45.3144 15.989L45.2458 17.056L43.2418 17.0764V17.0628ZM47.4624 15.3502C47.8536 15.3502 48.2036 15.2414 48.533 15.0443C48.835 14.8269 49.0821 14.5414 49.2742 14.1948C49.4526 13.8482 49.535 13.4336 49.535 12.9715C49.535 12.5162 49.4526 12.1016 49.2742 11.755C49.094 11.4208 48.8408 11.1306 48.533 10.9055C48.2118 10.7073 47.8409 10.6022 47.4624 10.6022C47.084 10.6022 46.7131 10.7073 46.3918 10.9055C46.083 11.123 45.8428 11.4084 45.6438 11.755C45.4623 12.1372 45.3731 12.556 45.383 12.9783C45.3563 13.3797 45.4352 13.7811 45.612 14.1432C45.7888 14.5054 46.0575 14.8158 46.3918 15.0443C46.7144 15.2414 47.0644 15.3502 47.4624 15.3502ZM52.6164 17.0696V8.85986H54.6271L54.6958 9.92685C54.9485 9.51785 55.3069 9.18313 55.734 8.9573C56.1611 8.73148 56.6414 8.62276 57.1252 8.64238C57.6784 8.63292 58.2221 8.78518 58.6884 9.08013C59.1547 9.37507 59.5228 9.7996 59.7468 10.3006C59.9869 10.8171 60.1173 11.456 60.1173 12.1696V17.09H57.9281V12.455C57.9281 11.8841 57.7977 11.4356 57.5369 11.1026C57.2762 10.7764 56.9193 10.5997 56.4664 10.5997C56.1369 10.5997 55.8487 10.6676 55.5948 10.8171C55.3546 10.9735 55.1556 11.1705 55.0046 11.4492C54.8519 11.7308 54.7762 12.0471 54.785 12.3667V17.0696H52.6164ZM61.2085 17.0696V5.48899H63.3977V9.90646C63.6943 9.51009 64.08 9.18762 64.5244 8.96465C64.9687 8.74169 65.4594 8.62437 65.9575 8.622C66.4747 8.6145 66.9869 8.72241 67.4562 8.93771C67.9254 9.15301 68.3397 9.47018 68.6683 9.86568C69.4031 10.7101 69.7923 11.7962 69.7595 12.9103C69.7714 14.05 69.3668 15.1555 68.6203 16.023C68.2752 16.4235 67.8457 16.7443 67.3619 16.9627C66.8782 17.1811 66.3519 17.2918 65.8203 17.287C65.32 17.3006 64.8245 17.188 64.3803 16.9597C63.9361 16.7314 63.5579 16.3951 63.2811 15.9822L63.2193 17.0492L61.2085 17.0696ZM65.4497 15.3502C65.8477 15.3502 66.1977 15.2414 66.5203 15.0443C66.8291 14.8269 67.0693 14.5414 67.2683 14.1948C67.4399 13.8482 67.5291 13.4336 67.5291 12.9715C67.5559 12.5701 67.477 12.1687 67.3001 11.8066C67.1233 11.4445 66.8546 11.134 66.5203 10.9055C66.1991 10.7073 65.8282 10.6022 65.4497 10.6022C65.0712 10.6022 64.7003 10.7073 64.3791 10.9055C64.0771 11.123 63.8301 11.4084 63.6379 11.755C63.4464 12.1338 63.3566 12.5551 63.3771 12.9783C63.3504 13.3797 63.4293 13.7811 63.6061 14.1432C63.783 14.5054 64.0517 14.8158 64.386 15.0443C64.7085 15.2414 65.0379 15.3502 65.4497 15.3502Z" fill="#FF385C"/>
</svg>
