<svg width="17" height="17" viewBox="0 0 17 17" fill="none" xmlns="http://www.w3.org/2000/svg">
<path fill-rule="evenodd" clip-rule="evenodd" d="M16.0268 8.49989C16.0268 4.10804 12.4658 0.547119 8.07399 0.547119C3.68213 0.547119 0.121216 4.10804 0.121216 8.49989C0.121216 12.469 3.02902 15.7593 6.83149 16.3565V10.7993H4.81168V8.49989H6.83149V6.74738C6.83149 4.75442 8.0192 3.65282 9.83543 3.65282C10.7055 3.65282 11.6159 3.80827 11.6159 3.80827V5.76545H10.6127C9.62519 5.76545 9.31649 6.37833 9.31649 7.00795V8.49983H11.5219L11.1696 10.7992H9.31643V16.3565C13.1189 15.7603 16.0267 12.47 16.0267 8.49983L16.0268 8.49989Z" fill="white"/>
<path fill-rule="evenodd" clip-rule="evenodd" d="M11.1697 10.7992L11.522 8.49985H9.31658V7.00797C9.31658 6.37944 9.62411 5.76547 10.6128 5.76547H11.616V3.80828C11.616 3.80828 10.7057 3.65283 9.83552 3.65283C8.01928 3.65283 6.83158 4.75333 6.83158 6.7474V8.49991H4.81177V10.7993H6.83158V16.3566C7.23641 16.4202 7.65133 16.4527 8.07408 16.4527C8.49682 16.4527 8.91175 16.4191 9.31658 16.3566V10.7993H11.1697L11.1697 10.7992Z" fill="#292929"/>
</svg>
