<svg width="22" height="16" viewBox="0 0 22 16" fill="none" xmlns="http://www.w3.org/2000/svg">
<path d="M11.5257 15.4326L7.12746 15.3501C5.70341 15.3213 4.27582 15.3787 2.87969 15.0808C0.755859 14.6357 0.605399 12.4531 0.447959 10.6224C0.231023 8.04857 0.315005 5.42805 0.724393 2.87574C0.955505 1.44362 1.86503 0.589065 3.27157 0.496073C8.01969 0.158593 12.7994 0.198588 17.537 0.356035C18.0373 0.370468 18.5411 0.449357 19.0345 0.539153C21.4699 0.977118 21.5293 3.45043 21.6871 5.5325C21.8446 7.63605 21.7781 9.75041 21.4772 11.8396C21.2358 13.5695 20.7738 15.0201 18.8245 15.1601C16.3822 15.3432 13.9959 15.4907 11.5466 15.4437C11.5467 15.4326 11.5327 15.4326 11.5257 15.4326ZM8.93995 11.0532C10.7805 9.969 12.5859 8.9029 14.4159 7.826C12.5719 6.74184 10.77 5.67574 8.93995 4.59884V11.0532Z" fill="white"/>
</svg>
