<svg width="18" height="17" viewBox="0 0 18 17" fill="none" xmlns="http://www.w3.org/2000/svg">
<path d="M16.0915 4.54607C16.1024 4.71526 16.1024 4.88445 16.1024 5.0552C16.1024 10.258 12.4194 16.2585 5.68479 16.2585V16.2554C3.69537 16.2585 1.74728 15.6456 0.0725098 14.4902C0.361788 14.5276 0.652516 14.5463 0.943969 14.5471C2.59264 14.5486 4.19418 13.9537 5.49122 12.8583C3.92447 12.8263 2.55059 11.7277 2.07063 10.1239C2.61946 10.2378 3.18497 10.2144 3.72365 10.0561C2.01553 9.68496 0.786642 8.07102 0.786642 6.19666C0.786642 6.17951 0.786642 6.16313 0.786642 6.14676C1.2956 6.45162 1.86545 6.62081 2.44836 6.63952C0.839568 5.48325 0.343663 3.18162 1.31517 1.38211C3.17409 3.84201 5.91679 5.33745 8.86105 5.49572C8.56597 4.12816 8.96908 2.6951 9.92029 1.73375C11.395 0.242994 13.7142 0.319403 15.1005 1.9045C15.9204 1.73063 16.7064 1.40706 17.4256 0.948608C17.1522 1.86006 16.5802 2.63428 15.816 3.12626C16.5418 3.03426 17.2508 2.82531 17.9186 2.50642C17.427 3.29857 16.8079 3.98859 16.0915 4.54607Z" fill="white"/>
</svg>
