<svg width="40" height="34" viewBox="0 0 40 34" fill="none" xmlns="http://www.w3.org/2000/svg">
<path d="M2 14H38M36 26V15.3582C36 14.8511 36.0002 14.5977 35.9688 14.3484C35.9408 14.127 35.8941 13.9081 35.8297 13.6944C35.7571 13.4538 35.6539 13.2223 35.448 12.759L32.3555 5.80078C31.744 4.42506 31.4383 3.73705 30.9551 3.23267C30.5279 2.78683 30.0041 2.44601 29.4232 2.23674C28.766 2 28.0126 2 26.5071 2H13.4922C11.9867 2 11.2343 2 10.5771 2.23674C9.99625 2.44601 9.47207 2.78683 9.04492 3.23267C8.56168 3.73705 8.25571 4.42507 7.64428 5.80078L4.55176 12.759C4.34582 13.2223 4.24244 13.4538 4.16992 13.6944C4.10551 13.9081 4.05937 14.127 4.03144 14.3484C4 14.5977 4 14.8511 4 15.3582V26M36 26L4 26M36 26V28C36 30.2091 34.2091 32 32 32C29.7909 32 28 30.2091 28 28V26M4 26V28C4 30.2091 5.79086 32 8 32C10.2091 32 12 30.2091 12 28V26" stroke="#FF6B00" stroke-width="3" stroke-linecap="round" stroke-linejoin="round"/>
</svg>
