<svg width="39" height="32" viewBox="0 0 39 32" fill="none" xmlns="http://www.w3.org/2000/svg">
<path d="M12.6865 21.1801C13.6182 20.181 14.7447 19.3834 15.9966 18.8365C17.2484 18.2895 18.5986 18.0048 19.9647 18C21.3308 17.9953 22.6835 18.2705 23.9392 18.8087C25.1948 19.3468 26.3271 20.1365 27.2658 21.1291M8.29883 15.0881C9.78952 13.4895 11.5919 12.2134 13.5949 11.3383C15.5979 10.4632 17.7587 10.0078 19.9445 10.0001C22.1302 9.99252 24.2942 10.4328 26.3033 11.2939C28.3123 12.1549 30.124 13.4185 31.6258 15.0066M2.44727 9.63209C4.6833 7.23423 7.38694 5.31996 10.3914 4.00735C13.3958 2.69474 16.6376 2.01159 19.9162 2.00015C23.1948 1.9887 26.4409 2.64917 29.4544 3.94077C32.4679 5.23237 35.1846 7.12778 37.4373 9.50996M20 30C18.8954 30 18 29.1046 18 28C18 26.8955 18.8954 26 20 26C21.1046 26 22 26.8955 22 28C22 29.1046 21.1046 30 20 30Z" stroke="#FF6B00" stroke-width="3" stroke-linecap="round" stroke-linejoin="round"/>
</svg>
