<svg width="33" height="41" viewBox="0 0 33 41" fill="none" xmlns="http://www.w3.org/2000/svg">
<path d="M5.43602 26.4659H26.7871M5.09173 22.4482H27.1316M27.8657 13.884L26.2581 32.6398C26.0803 34.7142 25.9913 35.7512 25.5303 36.5361C25.1243 37.2272 24.5216 37.7811 23.7983 38.1266C22.977 38.5189 21.936 38.519 19.854 38.519H12.3708C10.2888 38.519 9.24708 38.5189 8.42574 38.1266C7.70244 37.7811 7.09938 37.2272 6.69341 36.536C6.23241 35.7512 6.14348 34.7142 5.96567 32.6398L4.35803 13.884C4.25426 12.6733 4.20243 12.0678 4.40621 11.6007C4.58525 11.1903 4.89628 10.8516 5.28987 10.6381C5.73786 10.3952 6.3455 10.3952 7.5606 10.3952H24.6638C25.8789 10.3952 26.4868 10.3952 26.9348 10.6381C27.3284 10.8516 27.6387 11.1903 27.8177 11.6007C28.0215 12.0678 27.9695 12.6733 27.8657 13.884ZM26.6528 10.3952H5.57138C3.76019 10.3952 2.85463 10.3952 2.3286 10.0161C1.86478 9.68189 1.56558 9.16594 1.50552 8.59742C1.4374 7.95264 1.88709 7.16642 2.78569 5.59387C3.45699 4.41909 3.79265 3.83169 4.26371 3.40376C4.68485 3.02119 5.18231 2.73239 5.72342 2.55655C6.32868 2.35986 7.00499 2.35986 8.35806 2.35986H23.8668C25.2198 2.35986 25.8963 2.35986 26.5016 2.55655C27.0427 2.73239 27.5398 3.02119 27.9609 3.40376C28.432 3.83169 28.7676 4.41909 29.4389 5.59387C30.3375 7.16642 30.787 7.95265 30.7189 8.59742C30.6588 9.16594 30.36 9.68189 29.8962 10.0161C29.3702 10.3952 28.464 10.3952 26.6528 10.3952Z" stroke="#FF7500" stroke-width="3" stroke-linecap="round" stroke-linejoin="round"/>
</svg>
